<svg width="69.7845458984375px" height="122px" xmlns="http://www.w3.org/2000/svg" viewBox="215.10772705078125 14 69.7845458984375 122" style="background: rgba(0, 0, 0, 0);" preserveAspectRatio="xMidYMid"><defs><linearGradient id="editing-sticker-gradient" x1="0.5" y1="0.2" x2="0.5" y2="0.8"><stop offset="0" stop-color="#fd9"></stop><stop offset="1" stop-color="#9df"></stop></linearGradient><filter id="editing-sticker" x="-100%" y="-100%" width="300%" height="300%"><feMorphology operator="erode" radius="1" in="SourceAlpha" result="alpha-erode"></feMorphology><feConvolveMatrix order="3,3" divisor="1" kernelMatrix="0 1 0 1 1 1 0 1 0" in="alpha-erode" result="alpha-round"></feConvolveMatrix><feMorphology operator="dilate" radius="3.5" in="alpha-round" result="dilate-shadow"></feMorphology><feGaussianBlur in="dilate-shadow" stdDeviation="1.5" result="shadow"></feGaussianBlur><feFlood flood-color="#fff" result="flood-sticker"></feFlood><feComposite operator="in" in="flood-sticker" in2="alpha-round" result="comp-sticker"></feComposite><feMorphology operator="dilate" radius="3" in="comp-sticker" result="morph-sticker"></feMorphology><feConvolveMatrix order="3,3" divisor="1" kernelMatrix="0 1 0 1 1 1 0 1 0" in="morph-sticker" result="sticker"></feConvolveMatrix><feMerge><feMergeNode in="shadow"></feMergeNode><feMergeNode in="sticker"></feMergeNode><feMergeNode in="SourceGraphic"></feMergeNode></feMerge></filter></defs><g filter="url(#editing-sticker)"><g transform="translate(231.98087045550346, 103.61000061035156)"><path d="M10.43 1.15L10.43 1.15Q5.31 0.83 2.43-1.12L2.43-1.12L2.43-1.12Q-0.45-3.07-0.45-6.34L-0.45-6.34L-0.45-6.34Q-0.45-9.60 1.50-11.71L1.50-11.71L1.50-11.71Q3.46-13.82 6.53-13.82L6.53-13.82L6.53-13.82Q9.28-13.82 11.20-12.99L11.20-12.99L11.20-12.99Q9.92-10.82 9.92-8.03L9.92-8.03L9.92-8.03Q9.92-5.25 10.85-4.16L10.85-4.16L10.85-4.16Q11.78-3.07 14.08-3.07L14.08-3.07L14.08-3.07Q16.38-3.07 18.05-4.45L18.05-4.45L18.05-4.45Q19.71-5.82 19.71-8.13L19.71-8.13L19.71-8.13Q19.71-10.43 18.53-11.84L18.53-11.84L18.53-11.84Q17.34-13.25 15.55-14.37L15.55-14.37L15.55-14.37Q13.76-15.49 11.68-16.58L11.68-16.58L11.68-16.58Q9.60-17.66 7.81-19.20L7.81-19.20L7.81-19.20Q3.65-22.66 3.65-28.35L3.65-28.35L3.65-28.35Q3.65-33.79 8.06-38.02L8.06-38.02L8.06-38.02Q12.42-42.18 19.20-43.20L19.20-43.20L19.52-44.93L19.52-44.93Q20.03-47.74 20.96-48.74L20.96-48.74L20.96-48.74Q21.89-49.73 23.55-49.73L23.55-49.73L23.55-49.73Q25.22-49.73 26.62-49.41L26.62-49.41L25.41-43.39L25.41-43.39Q30.59-43.01 33.38-41.02L33.38-41.02L33.38-41.02Q36.16-39.04 36.16-35.94L36.16-35.94L36.16-35.94Q36.16-32.83 34.02-31.04L34.02-31.04L34.02-31.04Q31.87-29.25 28.42-29.25L28.42-29.25L28.42-29.25Q26.30-29.25 24.77-29.89L24.77-29.89L24.77-29.89Q25.15-30.72 25.54-32.16L25.54-32.16L25.54-32.16Q25.92-33.60 25.92-34.43L25.92-34.43L25.92-34.43Q25.92-35.26 25.79-36.19L25.79-36.19L25.79-36.19Q25.66-37.12 25.22-37.89L25.22-37.89L25.22-37.89Q24.32-39.49 21.73-39.49L21.73-39.49L21.73-39.49Q19.14-39.49 17.60-37.76L17.60-37.76L17.60-37.76Q16.06-36.03 16.06-33.70L16.06-33.70L16.06-33.70Q16.06-31.36 17.31-29.98L17.31-29.98L17.31-29.98Q18.56-28.61 20.38-27.33L20.38-27.33L20.38-27.33Q22.21-26.05 24.38-24.77L24.38-24.77L24.38-24.77Q26.56-23.49 28.42-21.95L28.42-21.95L28.42-21.95Q32.70-18.30 32.70-13.70L32.70-13.70L32.70-13.70Q32.70-8 28.16-3.97L28.16-3.97L28.16-3.97Q23.68-0.06 16.90 0.96L16.90 0.96L16.58 2.69L16.58 2.69Q16 5.50 15.07 6.50L15.07 6.50L15.07 6.50Q14.14 7.49 12.29 7.49L12.29 7.49L12.29 7.49Q10.43 7.49 9.28 7.17L9.28 7.17L10.43 1.15Z" fill="url(#editing-sticker-gradient)" stroke="#000" stroke-width="2.5"></path></g></g><style>text {
  font-size: 64px;
  font-family: Arial Black;
  dominant-baseline: central;
  text-anchor: middle;
}</style></svg>